<svg version="1.1" id="Layer_1" xmlns="http://www.w3.org/2000/svg" xmlns:xlink="http://www.w3.org/1999/xlink" x="0px" y="0px"
	 viewBox="0 0 755 178" enable-background="new 0 0 755 178" xml:space="preserve">
<path fill="#000000" opacity="1.000000" stroke="none" 
	d="
M498.000000,179.000000 
	C332.000000,179.000000 166.500000,179.000000 1.000000,179.000000 
	C1.000000,119.666664 1.000000,60.333332 1.000000,1.000000 
	C252.666672,1.000000 504.333344,1.000000 756.000000,1.000000 
	C756.000000,60.333332 756.000000,119.666664 756.000000,179.000000 
	C670.166687,179.000000 584.333313,179.000000 498.000000,179.000000 
M171.000015,97.259605 
	C170.667404,90.518921 170.719070,83.732750 169.927689,77.046364 
	C167.840561,59.412144 159.591934,44.462433 147.290619,32.208195 
	C136.311050,21.270649 122.805145,13.216917 107.229080,11.376790 
	C95.309189,9.968596 82.807205,9.863416 71.014687,11.851357 
	C53.361019,14.827344 38.716705,24.218857 27.082027,38.260002 
	C19.436934,47.486374 13.762080,57.681740 11.152054,69.179077 
	C7.611106,84.777184 7.607861,100.331848 12.794277,115.963020 
	C18.120169,132.014557 27.424585,144.977386 40.686802,154.788559 
	C59.642132,168.811401 81.290726,172.522614 104.435944,169.046951 
	C127.143387,165.637024 144.238586,153.634933 157.279861,135.252838 
	C165.158615,124.147530 169.261902,111.602753 171.000015,97.259605 
M272.500000,104.000000 
	C267.835052,104.000000 263.170074,104.000000 258.505127,104.000000 
	C245.843079,104.000015 233.180664,103.959068 220.519516,104.065659 
	C219.301346,104.075920 218.090912,105.003204 216.876877,105.504791 
	C217.079437,106.003197 217.281982,106.501595 217.484543,107.000000 
	C219.296921,107.000000 221.109299,107.000000 222.921677,107.000000 
	C396.691681,107.000000 570.461670,107.005455 744.231628,106.929520 
	C746.146973,106.928680 748.061768,105.865921 749.976807,105.298874 
	C748.093994,104.865913 746.211365,104.054550 744.328430,104.053848 
	C587.385620,103.995461 430.442810,104.000000 272.500000,104.000000 
M257.112335,47.001537 
	C249.309738,47.041061 241.753952,47.017143 234.282639,50.782337 
	C223.022446,56.456959 218.757339,75.228813 229.419098,85.031036 
	C237.510544,92.470169 247.035477,92.683128 256.912689,91.500092 
	C259.601685,91.178017 263.054810,90.333130 264.530426,88.452042 
	C266.580811,85.838280 267.097168,82.021156 268.281982,78.685974 
	C264.588745,76.724449 262.082764,75.555595 259.602417,80.501381 
	C256.380524,86.925812 250.278336,87.700226 244.270767,84.081055 
	C237.829529,80.200607 237.170761,70.117378 238.226807,63.714592 
	C239.131302,58.230545 242.491928,53.936825 247.870148,52.169140 
	C252.160797,50.758915 255.462509,53.325813 258.026154,56.615433 
	C259.000122,57.865227 259.659821,59.359962 260.489014,60.788311 
	C262.494476,60.788311 264.604767,60.788311 267.505280,60.788311 
	C266.513977,56.723000 266.166901,52.742725 264.466827,49.464012 
	C263.679565,47.945702 260.255676,47.794537 257.112335,47.001537 
M740.002319,84.177101 
	C740.002319,73.906036 740.002319,63.634964 740.002319,52.848129 
	C735.397949,53.264660 731.212891,53.558266 727.059814,54.097668 
	C726.316040,54.194260 725.470703,55.202835 725.120300,55.989841 
	C724.915466,56.449936 725.458374,57.778492 725.903259,57.910019 
	C730.674622,59.320602 728.727966,62.809494 728.845459,65.999977 
	C727.488037,65.999977 726.512024,65.992607 725.536133,66.001129 
	C716.731140,66.078056 711.539062,71.993378 711.986816,81.311119 
	C712.293091,87.686371 718.826355,92.728493 727.101440,91.913574 
	C732.704041,91.361855 738.269775,90.436073 743.851990,89.677597 
	C744.101257,89.229561 744.350586,88.781525 744.599915,88.333488 
	C743.078552,87.261024 741.557251,86.188553 740.002319,84.177101 
M649.996033,88.439476 
	C646.157837,85.382889 647.037292,81.070656 647.013672,77.032280 
	C646.967163,69.089806 647.000000,61.146873 647.000000,52.726604 
	C641.453979,53.725147 635.994568,52.703304 631.589050,56.763416 
	C637.844910,58.284672 635.961670,62.332325 635.698242,66.000000 
	C634.379639,66.000000 633.387634,65.974541 632.397278,66.004112 
	C625.619141,66.206474 619.977844,71.058487 619.008118,77.506859 
	C617.997742,84.225098 621.145752,88.779076 628.591919,91.101982 
	C635.925354,93.389732 642.909546,90.898964 649.996033,88.439476 
M496.000000,80.110748 
	C495.328583,76.704247 495.411469,72.884407 493.820801,69.981606 
	C490.954926,64.751617 485.181458,66.068916 479.958374,65.910820 
	C479.958374,61.483105 479.958374,57.393833 479.958374,52.806477 
	C475.690948,53.240211 471.812988,53.446724 468.038147,54.182457 
	C467.316498,54.323109 467.001495,56.549988 466.498901,57.814377 
	C470.328522,58.868301 468.872833,62.024940 468.946167,64.394783 
	C469.115631,69.873985 469.000000,75.362015 469.000000,80.846458 
	C469.000000,89.549362 468.980682,89.628769 477.292145,91.652336 
	C483.954010,93.274277 494.194092,89.559776 496.000000,80.110748 
M343.603668,91.000000 
	C351.914856,91.000000 360.226044,91.000000 369.290253,91.000000 
	C368.779144,89.406075 368.497375,87.242142 368.003632,87.192650 
	C364.352142,86.826668 365.032104,84.237068 365.009369,81.997505 
	C364.973816,78.499763 365.417145,74.930336 364.838379,71.530746 
	C364.507080,69.584686 362.802765,66.651962 361.288177,66.356026 
	C356.697662,65.459030 351.884155,65.299751 347.184967,65.499413 
	C343.868011,65.640350 340.595764,66.832970 336.595795,67.711502 
	C342.078186,75.163528 341.121643,82.982124 336.607758,91.000000 
	C339.327820,91.000000 340.983032,91.000000 343.603668,91.000000 
M318.795166,74.273849 
	C316.364319,68.273888 311.958862,65.480392 305.464233,65.983040 
	C303.976440,66.098183 302.470673,65.957016 300.975708,66.007889 
	C295.986450,66.177673 290.707306,71.331680 290.005066,76.682648 
	C289.171173,83.036743 292.622040,89.384422 297.778717,90.913536 
	C309.076630,94.263702 321.218353,88.790230 318.795166,74.273849 
M672.518372,78.000595 
	C668.232056,78.923393 666.923706,82.145287 668.203491,85.602531 
	C669.039612,87.861588 671.596863,90.603935 673.781494,91.015442 
	C678.665405,91.935387 683.850220,92.001389 688.806335,91.454247 
	C691.002441,91.211815 692.941345,88.639687 694.997009,87.125122 
	C693.812378,86.039047 692.627747,84.952980 691.000000,83.460648 
	C691.000000,82.080513 691.115479,79.919266 690.970886,77.775551 
	C690.787537,75.056381 691.019165,72.068245 689.949585,69.703682 
	C688.132690,65.686981 680.431458,64.273140 675.337463,67.026039 
	C672.602417,68.504135 670.447449,71.055534 668.030762,73.122612 
	C670.727539,74.493538 673.424377,75.864464 675.533142,76.936470 
	C675.567017,76.920662 674.448608,77.442650 672.518372,78.000595 
M423.247467,81.222023 
	C422.704315,88.300919 427.454926,93.421585 433.633636,91.853386 
	C436.264130,91.185745 438.337585,91.243164 440.998993,91.636574 
	C443.710968,92.037468 447.468262,90.368240 449.593384,88.361557 
	C451.816101,86.262741 448.482574,85.432655 447.125214,84.122322 
	C446.254059,83.281296 446.136932,81.460091 446.045258,80.054558 
	C445.883667,77.576706 445.744476,75.047684 446.060852,72.600197 
	C446.516266,69.077080 444.477142,66.840424 441.782867,66.467613 
	C438.021362,65.947136 433.840393,65.991394 430.294708,67.167786 
	C427.515533,68.089851 425.428131,71.096901 423.033386,73.177635 
	C425.735229,74.515793 428.437073,75.853951 430.375732,76.814140 
	C428.961945,77.657097 426.411804,79.177567 423.247467,81.222023 
M526.003845,134.501633 
	C523.386841,130.963013 527.842468,130.783066 528.735596,128.912109 
	C529.292236,127.745956 530.461731,126.872345 532.124817,125.003922 
	C527.974182,125.003922 525.187622,125.003922 522.442627,125.003922 
	C521.574463,118.042168 519.375244,116.364876 512.296204,117.000641 
	C508.194489,117.369011 506.672668,120.227135 507.001312,126.321251 
	C507.062439,127.455338 506.423492,128.856888 505.665436,129.766525 
	C501.979553,134.189636 503.627106,140.047699 509.267670,140.864014 
	C512.510437,141.333313 515.967651,140.084152 519.300781,140.231918 
	C522.665283,140.381119 525.994019,141.310928 529.346130,141.850830 
	C529.504944,141.876404 529.738647,141.436829 530.514893,140.566345 
	C529.265442,138.825928 527.900574,136.924866 526.003845,134.501633 
M553.665161,91.000000 
	C557.963745,91.000000 562.262390,91.000000 567.308594,91.000000 
	C566.781372,89.393768 566.494080,87.242554 565.991272,87.190948 
	C562.355896,86.817902 563.015381,84.239899 563.009949,82.007896 
	C562.986572,72.422897 563.000000,62.837822 563.000000,52.755192 
	C558.799805,53.211174 555.105225,53.532589 551.442200,54.069866 
	C550.599670,54.193443 549.361145,54.950684 549.220703,55.611053 
	C549.073120,56.305183 550.095032,57.201767 550.479309,58.066132 
	C551.045044,59.338562 551.906982,60.652969 551.932251,61.963219 
	C552.073242,69.266441 552.031677,76.574097 551.963745,83.879402 
	C551.954224,84.903778 551.616272,86.006218 551.142273,86.923691 
	C550.605225,87.963402 549.743652,88.835449 549.023132,89.780380 
	C550.254211,90.186920 551.485291,90.593460 553.665161,91.000000 
M388.000000,74.749229 
	C388.000000,76.907837 387.585938,79.170044 388.094208,81.201492 
	C388.916107,84.486610 389.449310,88.691124 391.712830,90.582489 
	C395.750244,93.956093 400.583130,91.313263 404.882324,89.520401 
	C405.422485,89.295151 406.030121,88.013611 405.839325,87.515144 
	C405.477509,86.569878 404.708221,85.451180 403.834808,85.115150 
	C402.761597,84.702255 401.408569,85.016624 400.110138,85.016624 
	C400.110138,80.112869 400.110138,75.823288 400.110138,71.100494 
	C403.573212,71.336273 406.047821,70.423782 404.468079,65.895645 
	C403.108673,65.895645 401.696228,65.895645 399.931183,65.895645 
	C399.931183,63.456463 399.931183,61.369190 399.931183,59.384357 
	C392.333984,57.424667 389.606750,62.521194 385.946899,67.254776 
	C382.805786,71.317429 388.480896,70.633614 388.006348,72.836319 
	C387.938019,73.153450 387.998871,73.498421 388.000000,74.749229 
M280.159119,124.000053 
	C278.775604,123.915443 277.392090,123.830826 275.840271,123.735916 
	C275.840271,120.582054 275.840271,117.959579 275.840271,114.742287 
	C272.351990,115.332199 269.163605,115.871384 265.861511,116.429802 
	C270.722961,124.731506 270.367889,132.646011 265.928986,140.788727 
	C273.376373,140.788727 280.606812,140.788727 287.159027,140.788727 
	C286.757080,136.838974 286.861938,132.911026 285.798920,129.329742 
	C285.185760,127.264145 282.685852,125.758606 280.159119,124.000053 
M252.703705,124.999878 
	C253.802032,124.279655 255.932251,123.138046 255.837158,122.905182 
	C254.997803,120.849762 253.922546,117.430107 252.616058,117.293549 
	C248.296890,116.842117 243.693710,116.965126 239.491287,118.024765 
	C232.592377,119.764320 229.750168,125.958122 231.950363,132.724182 
	C234.311768,139.986053 241.163712,143.195709 248.902664,141.747940 
	C254.193726,140.758118 256.368774,138.464630 255.719879,131.538376 
	C253.098755,133.369522 251.170074,134.349701 249.728516,135.810562 
	C247.595169,137.972458 246.033401,138.732910 243.000504,136.720230 
	C238.840515,133.959610 239.643265,130.036621 240.254684,126.720993 
	C240.689514,124.362900 243.300507,122.194817 245.410614,120.542625 
	C245.812515,120.227951 248.401627,122.741158 250.008560,123.912666 
	C250.582291,124.330948 251.235794,124.639824 252.703705,124.999878 
M585.885559,137.975952 
	C583.267334,132.388977 579.963379,127.001610 578.259827,121.148438 
	C577.019531,116.886810 574.943054,116.647621 571.630676,117.145241 
	C567.510925,124.829872 566.905579,134.156738 559.308350,140.765167 
	C564.675476,140.765167 568.772766,140.765167 574.444946,140.765167 
	C572.261292,138.926361 571.184814,138.019882 569.527466,136.624237 
	C570.840332,135.421967 572.507996,132.961197 573.417297,133.215195 
	C578.882568,134.741791 573.607178,138.239914 574.174988,140.820923 
	C578.918152,140.820923 583.371277,140.820923 588.708862,140.820923 
	C587.803040,139.528717 587.269836,138.768036 585.885559,137.975952 
M516.532471,86.907661 
	C515.523926,87.901581 514.515381,88.895493 512.574158,90.808533 
	C520.207825,90.808533 525.962341,90.808533 532.828735,90.808533 
	C526.043335,83.068962 530.459106,74.154106 528.510193,65.739143 
	C524.315918,66.176315 520.265381,66.516357 516.247559,67.086777 
	C515.446960,67.200439 514.544556,68.069771 514.124817,68.830963 
	C513.879639,69.275597 514.488647,70.807480 514.729492,70.811203 
	C518.253113,70.865631 516.880981,73.501778 516.949036,75.131844 
	C517.101196,78.775940 516.978577,82.431526 516.532471,86.907661 
M597.955139,66.819870 
	C593.373779,66.819870 588.792358,66.819870 582.917114,66.819870 
	C589.055176,75.168350 588.140930,82.990532 583.717285,90.849548 
	C590.340515,90.849548 595.973572,90.849548 602.112305,90.849548 
	C601.861328,89.461823 601.869141,87.331223 601.393738,87.217316 
	C597.264404,86.227859 598.248779,82.838829 598.074707,80.256447 
	C597.795288,76.110825 597.997986,71.932693 597.955139,66.819870 
M728.413147,132.000671 
	C725.434937,132.773483 724.353577,135.010345 725.157532,137.605392 
	C725.581116,138.972855 727.397461,140.682877 728.748596,140.841156 
	C732.519226,141.282822 736.396301,141.214584 740.183350,140.849442 
	C741.193726,140.752014 742.861084,138.806595 742.790894,137.810913 
	C742.592041,134.992950 742.102661,132.001617 740.861633,129.509979 
	C739.793457,127.365425 737.660522,124.488800 735.771729,124.308311 
	C732.864868,124.030563 729.722534,125.669685 726.773987,126.751610 
	C726.011414,127.031425 724.967102,128.525574 725.164185,129.003235 
	C725.514648,129.852737 726.671692,130.423538 727.579285,130.963089 
	C727.952637,131.185074 728.565857,130.970169 729.041260,131.079361 
	C729.148071,131.103867 729.134338,131.652985 728.413147,132.000671 
M470.039520,140.998718 
	C470.970825,139.832321 472.633209,138.683945 472.662537,137.495285 
	C472.706757,135.701538 471.030792,133.857925 471.097717,132.073441 
	C471.437378,123.014641 464.089478,122.524887 458.685974,125.202095 
	C457.192169,125.942207 456.231903,127.759048 455.026825,129.081848 
	C456.466339,129.984085 457.905884,130.886337 458.190155,131.064499 
	C457.168060,132.965042 455.187225,134.978897 455.230957,136.947784 
	C455.301300,140.113419 457.746399,141.459518 461.137207,141.061600 
	C463.765381,140.753189 466.458679,140.999939 470.039520,140.998718 
M652.227112,124.244392 
	C650.487854,125.709732 648.748596,127.175072 647.009277,128.640396 
	C648.426392,129.713715 649.843506,130.787033 650.374756,131.189377 
	C649.319397,132.834076 647.492493,134.549973 647.229187,136.479279 
	C647.045959,137.821823 648.868225,140.609406 650.040039,140.753418 
	C654.109741,141.253479 658.304077,141.070908 662.408752,140.691116 
	C663.294495,140.609161 664.003784,138.621445 664.794373,137.511551 
	C660.170410,135.688736 663.014404,131.493652 661.858093,128.635040 
	C661.117371,126.803970 659.210022,125.192947 657.439026,124.123474 
	C656.348389,123.464806 654.529846,124.011574 652.227112,124.244392 
M371.948395,139.311493 
	C370.965607,136.866150 369.248657,134.454361 369.134979,131.969269 
	C368.765381,123.887398 365.118622,121.416252 357.829285,125.107719 
	C356.312775,125.875717 355.276184,127.591370 354.018402,128.870285 
	C355.454102,129.867615 356.889801,130.864944 357.384064,131.208298 
	C356.391266,132.812042 354.576538,134.640793 354.234863,136.712509 
	C354.032593,137.938797 356.119263,140.742386 357.242584,140.778351 
	C361.927917,140.928284 366.638245,140.297897 371.948395,139.311493 
M298.001404,135.750076 
	C298.427460,137.090103 298.785461,139.565262 299.289978,139.595505 
	C304.649506,139.916626 310.032440,139.859390 315.407135,139.781708 
	C315.477997,139.780685 315.608521,137.413605 315.572205,137.409607 
	C311.483704,136.958115 313.104980,133.800568 313.063110,131.757385 
	C312.902008,123.894066 309.255310,121.519936 302.075317,125.042343 
	C300.511261,125.809654 299.353241,127.404678 298.008209,128.618484 
	C299.422150,129.705490 300.836060,130.792511 301.713013,131.466675 
	C300.695374,132.423508 299.357697,133.681290 298.001404,135.750076 
M679.555420,139.043549 
	C682.219543,142.061050 685.455505,141.795502 687.037109,138.677979 
	C689.142273,134.528534 691.589600,130.553818 693.785889,126.448357 
	C694.099731,125.861626 693.829285,124.962318 693.829285,124.191002 
	C686.741577,124.191002 679.962952,124.191002 673.269531,124.191002 
	C675.232544,129.015320 677.138000,133.698196 679.555420,139.043549 
M341.469818,130.017929 
	C342.773651,128.266968 344.077515,126.515991 345.776459,124.234436 
	C337.931763,124.234436 331.063446,124.234436 323.974976,124.234436 
	C326.739929,129.946976 329.376862,135.395004 332.362335,141.563141 
	C333.813080,140.911194 336.194305,140.596741 337.100372,139.272751 
	C338.851624,136.713608 339.771027,133.585220 341.469818,130.017929 
M434.838440,140.997849 
	C438.214447,140.997849 441.590454,140.997849 444.941803,140.997849 
	C442.780762,132.286377 440.326111,124.335915 444.702576,115.751846 
	C441.734833,116.361053 438.847382,117.104050 436.850098,118.859711 
	C435.660370,119.905548 435.869232,122.542465 435.342041,124.955330 
	C434.095734,125.136765 430.873322,124.489510 434.541077,128.876099 
	C435.927948,130.534790 433.917572,134.982483 433.574585,138.171631 
	C433.476746,139.081055 433.796143,140.035355 434.838440,140.997849 
M633.030823,123.146751 
	C632.586914,122.104172 632.026184,120.131393 631.718018,120.170090 
	C629.727661,120.419983 627.295837,120.572189 625.971680,121.797180 
	C624.497314,123.161156 623.451599,125.593513 623.317871,127.632866 
	C623.181824,129.706818 624.843872,131.853180 624.915405,133.994659 
	C625.148621,140.973495 625.640869,141.659195 632.624451,140.911972 
	C634.136230,140.750214 635.529724,139.481903 636.977722,138.723297 
	C635.747986,137.848328 634.518311,136.973358 633.001221,135.893906 
	C633.287964,132.441879 631.340698,127.794693 638.762939,125.937424 
	C635.925842,124.848732 634.674744,124.368652 633.030823,123.146751 
M420.188171,129.998398 
	C421.119843,128.764511 422.051483,127.530624 422.983154,126.296738 
	C421.751892,125.531235 420.513855,124.107773 419.290558,124.120300 
	C415.179291,124.162430 411.073242,124.716171 406.094818,125.149986 
	C410.433716,130.736481 409.647675,135.647980 406.686829,140.762543 
	C411.407104,140.762543 415.655060,140.762543 420.993042,140.762543 
	C419.785370,139.395370 418.929871,138.797348 418.609467,137.987625 
	C417.925995,136.260437 417.209351,134.435806 417.137421,132.626038 
	C417.103821,131.780869 418.537506,130.877380 420.188171,129.998398 
M396.477173,129.000000 
	C397.354980,126.568764 397.692657,124.112900 394.158478,124.075768 
	C390.089722,124.033028 386.015137,124.543327 381.863647,124.818710 
	C382.746948,128.526962 383.984039,131.194504 383.817047,133.771042 
	C383.667480,136.078796 381.971436,138.286301 380.896027,140.674957 
	C385.524780,140.674957 389.725983,140.674957 393.272919,140.674957 
	C392.277344,137.200897 391.310028,133.825500 390.308228,130.329651 
	C392.960876,130.001617 394.420563,129.821106 396.477173,129.000000 
M605.614868,124.000008 
	C603.036987,124.469803 600.459167,124.939598 597.195312,125.534409 
	C601.810730,131.109009 600.756836,135.942032 596.715027,140.674149 
	C601.529968,140.674149 605.728088,140.674149 609.270142,140.674149 
	C608.282898,137.214859 607.315063,133.823563 606.223877,129.999954 
	C608.165405,129.999954 608.995483,130.255966 609.446045,129.951157 
	C610.713257,129.093903 611.824280,128.005768 612.996826,127.008644 
	C611.833069,126.005936 610.779724,124.803101 609.463379,124.077126 
	C608.699158,123.655663 607.512512,124.000175 605.614868,124.000008 
M703.659241,138.049667 
	C704.021362,139.031448 704.326599,140.835159 704.754700,140.864777 
	C708.137939,141.098999 711.544617,140.994995 714.190491,140.994995 
	C713.574951,134.970627 713.021118,129.549942 712.421692,123.682983 
	C709.263306,124.224571 706.128418,124.762131 704.048767,125.118736 
	C704.232056,129.754150 704.393127,133.826843 703.659241,138.049667 
M527.909973,62.575706 
	C529.172302,60.192711 529.719360,57.550930 526.759583,56.411373 
	C524.401978,55.503674 521.434875,55.147476 519.061829,55.773170 
	C517.974792,56.059788 517.370483,59.258705 517.140625,61.206905 
	C517.042480,62.038715 518.439514,63.819248 519.194153,63.840317 
	C521.885986,63.915459 524.593689,63.420383 527.909973,62.575706 
M589.939392,63.998917 
	C592.405945,63.413792 595.351074,63.420349 597.128113,61.982861 
	C597.961365,61.308853 596.759949,56.042950 596.106506,55.964237 
	C593.157715,55.609013 589.267029,55.358242 587.247437,56.978760 
	C584.782410,58.956726 585.729919,62.313896 589.939392,63.998917 
M705.000488,120.504234 
	C705.965759,121.336098 706.897583,122.801170 707.904053,122.854454 
	C709.494995,122.938683 711.181396,122.178955 712.707153,121.504303 
	C712.936890,121.402740 712.490173,119.045494 712.398254,119.048424 
	C709.930054,119.127029 707.467346,119.378014 705.000488,120.504234 
z"/>
<path fill="#FFFFFF" opacity="1.000000" stroke="none" 
	d="
M170.999954,97.731033 
	C169.261902,111.602753 165.158615,124.147530 157.279861,135.252838 
	C144.238586,153.634933 127.143387,165.637024 104.435944,169.046951 
	C81.290726,172.522614 59.642132,168.811401 40.686802,154.788559 
	C27.424585,144.977386 18.120169,132.014557 12.794277,115.963020 
	C7.607861,100.331848 7.611106,84.777184 11.152054,69.179077 
	C13.762080,57.681740 19.436934,47.486374 27.082027,38.260002 
	C38.716705,24.218857 53.361019,14.827344 71.014687,11.851357 
	C82.807205,9.863416 95.309189,9.968596 107.229080,11.376790 
	C122.805145,13.216917 136.311050,21.270649 147.290619,32.208195 
	C159.591934,44.462433 167.840561,59.412144 169.927689,77.046364 
	C170.719070,83.732750 170.667404,90.518921 170.999954,97.731033 
M29.998575,107.411942 
	C34.407833,120.406807 41.559063,131.422989 52.455235,140.047729 
	C68.239891,152.541870 85.756470,158.300278 105.890274,155.004211 
	C125.873802,151.732773 141.606415,141.402115 152.867203,124.935951 
	C162.976654,110.153328 166.735016,93.614906 164.159683,75.500122 
	C162.177536,61.557590 156.669525,49.490814 147.541702,39.157196 
	C133.233963,22.959372 115.426376,14.283647 93.334587,14.921544 
	C76.483345,15.408123 62.211872,21.911999 49.893356,32.763134 
	C39.231724,42.154755 32.077423,53.915909 28.474628,67.878998 
	C25.084156,81.019180 25.140455,93.846817 29.998575,107.411942 
z"/>
<path fill="#FFFFFF" opacity="1.000000" stroke="none" 
	d="
M273.000000,104.000000 
	C430.442810,104.000000 587.385620,103.995461 744.328430,104.053848 
	C746.211365,104.054550 748.093994,104.865913 749.976807,105.298874 
	C748.061768,105.865921 746.146973,106.928680 744.231628,106.929520 
	C570.461670,107.005455 396.691681,107.000000 222.921677,107.000000 
	C221.109299,107.000000 219.296921,107.000000 217.484543,107.000000 
	C217.281982,106.501595 217.079437,106.003197 216.876877,105.504791 
	C218.090912,105.003204 219.301346,104.075920 220.519516,104.065659 
	C233.180664,103.959068 245.843079,104.000015 258.505127,104.000000 
	C263.170074,104.000000 267.835052,104.000000 273.000000,104.000000 
z"/>
<path fill="#FFFFFF" opacity="1.000000" stroke="none" 
	d="
M257.569733,47.012550 
	C260.255676,47.794537 263.679565,47.945702 264.466827,49.464012 
	C266.166901,52.742725 266.513977,56.723000 267.505280,60.788311 
	C264.604767,60.788311 262.494476,60.788311 260.489014,60.788311 
	C259.659821,59.359962 259.000122,57.865227 258.026154,56.615433 
	C255.462509,53.325813 252.160797,50.758915 247.870148,52.169140 
	C242.491928,53.936825 239.131302,58.230545 238.226807,63.714592 
	C237.170761,70.117378 237.829529,80.200607 244.270767,84.081055 
	C250.278336,87.700226 256.380524,86.925812 259.602417,80.501381 
	C262.082764,75.555595 264.588745,76.724449 268.281982,78.685974 
	C267.097168,82.021156 266.580811,85.838280 264.530426,88.452042 
	C263.054810,90.333130 259.601685,91.178017 256.912689,91.500092 
	C247.035477,92.683128 237.510544,92.470169 229.419098,85.031036 
	C218.757339,75.228813 223.022446,56.456959 234.282639,50.782337 
	C241.753952,47.017143 249.309738,47.041061 257.569733,47.012550 
z"/>
<path fill="#FFFFFF" opacity="1.000000" stroke="none" 
	d="
M740.019104,84.646591 
	C741.557251,86.188553 743.078552,87.261024 744.599915,88.333488 
	C744.350586,88.781525 744.101257,89.229561 743.851990,89.677597 
	C738.269775,90.436073 732.704041,91.361855 727.101440,91.913574 
	C718.826355,92.728493 712.293091,87.686371 711.986816,81.311119 
	C711.539062,71.993378 716.731140,66.078056 725.536133,66.001129 
	C726.512024,65.992607 727.488037,65.999977 728.845459,65.999977 
	C728.727966,62.809494 730.674622,59.320602 725.903259,57.910019 
	C725.458374,57.778492 724.915466,56.449936 725.120300,55.989841 
	C725.470703,55.202835 726.316040,54.194260 727.059814,54.097668 
	C731.212891,53.558266 735.397949,53.264660 740.002319,52.848129 
	C740.002319,63.634964 740.002319,73.906036 740.019104,84.646591 
M728.999207,74.043518 
	C728.465454,72.933708 727.931702,71.823898 727.384827,70.686729 
	C722.409912,73.524094 724.026794,77.600006 724.213379,80.951126 
	C724.302917,82.558899 726.460876,84.051476 727.682068,85.596222 
	C728.121399,85.339630 728.560669,85.083046 729.000000,84.826454 
	C729.000000,81.527443 729.000000,78.228424 728.999207,74.043518 
z"/>
<path fill="#FFFFFF" opacity="1.000000" stroke="none" 
	d="
M649.972168,88.883453 
	C642.909546,90.898964 635.925354,93.389732 628.591919,91.101982 
	C621.145752,88.779076 617.997742,84.225098 619.008118,77.506859 
	C619.977844,71.058487 625.619141,66.206474 632.397278,66.004112 
	C633.387634,65.974541 634.379639,66.000000 635.698242,66.000000 
	C635.961670,62.332325 637.844910,58.284672 631.589050,56.763416 
	C635.994568,52.703304 641.453979,53.725147 647.000000,52.726604 
	C647.000000,61.146873 646.967163,69.089806 647.013672,77.032280 
	C647.037292,81.070656 646.157837,85.382889 649.972168,88.883453 
M631.001953,78.336693 
	C632.126343,80.686493 633.250732,83.036301 634.375122,85.386101 
	C634.645264,85.161835 634.915344,84.937569 635.185425,84.713295 
	C635.185425,79.940399 635.185425,75.167496 635.185425,70.394592 
	C634.610229,70.296837 634.035034,70.199081 633.459839,70.101334 
	C632.639954,72.572807 631.820068,75.044281 631.001953,78.336693 
z"/>
<path fill="#FFFFFF" opacity="1.000000" stroke="none" 
	d="
M495.999695,80.541107 
	C494.194092,89.559776 483.954010,93.274277 477.292145,91.652336 
	C468.980682,89.628769 469.000000,89.549362 469.000000,80.846458 
	C469.000000,75.362015 469.115631,69.873985 468.946167,64.394783 
	C468.872833,62.024940 470.328522,58.868301 466.498901,57.814377 
	C467.001495,56.549988 467.316498,54.323109 468.038147,54.182457 
	C471.812988,53.446724 475.690948,53.240211 479.958374,52.806477 
	C479.958374,57.393833 479.958374,61.483105 479.958374,65.910820 
	C485.181458,66.068916 490.954926,64.751617 493.820801,69.981606 
	C495.411469,72.884407 495.328583,76.704247 495.999695,80.541107 
M484.000000,79.553169 
	C484.261719,76.198891 484.191345,72.994797 480.290436,71.429977 
	C480.290436,76.299187 480.290436,81.098892 480.290436,85.927437 
	C485.085175,86.189392 483.763672,82.828781 484.000000,79.553169 
z"/>
<path fill="#FFFFFF" opacity="1.000000" stroke="none" 
	d="
M343.120972,91.000000 
	C340.983032,91.000000 339.327820,91.000000 336.607758,91.000000 
	C341.121643,82.982124 342.078186,75.163528 336.595795,67.711502 
	C340.595764,66.832970 343.868011,65.640350 347.184967,65.499413 
	C351.884155,65.299751 356.697662,65.459030 361.288177,66.356026 
	C362.802765,66.651962 364.507080,69.584686 364.838379,71.530746 
	C365.417145,74.930336 364.973816,78.499763 365.009369,81.997505 
	C365.032104,84.237068 364.352142,86.826668 368.003632,87.192650 
	C368.497375,87.242142 368.779144,89.406075 369.290253,91.000000 
	C360.226044,91.000000 351.914856,91.000000 343.120972,91.000000 
M354.000000,79.595673 
	C353.768219,77.119507 353.536407,74.643341 353.304626,72.167168 
	C352.536407,72.206474 351.768219,72.245781 351.000000,72.285080 
	C351.000000,75.091766 350.799957,77.917496 351.064911,80.698936 
	C351.267303,82.823235 352.058319,84.891457 352.587463,86.984627 
	C353.058319,84.833115 353.529175,82.681602 354.000000,79.595673 
z"/>
<path fill="#FFFFFF" opacity="1.000000" stroke="none" 
	d="
M318.890533,74.684113 
	C321.218353,88.790230 309.076630,94.263702 297.778717,90.913536 
	C292.622040,89.384422 289.171173,83.036743 290.005066,76.682648 
	C290.707306,71.331680 295.986450,66.177673 300.975708,66.007889 
	C302.470673,65.957016 303.976440,66.098183 305.464233,65.983040 
	C311.958862,65.480392 316.364319,68.273888 318.890533,74.684113 
M301.999969,78.461403 
	C302.720245,81.382500 303.440521,84.303604 304.160797,87.224709 
	C304.665070,87.115891 305.169342,87.007072 305.673615,86.898247 
	C307.977448,81.205597 307.623505,75.618607 303.555084,69.931786 
	C303.036713,72.482964 302.518372,75.034142 301.999969,78.461403 
z"/>
<path fill="#FFFFFF" opacity="1.000000" stroke="none" 
	d="
M672.924255,77.982620 
	C674.448608,77.442650 675.567017,76.920662 675.533142,76.936470 
	C673.424377,75.864464 670.727539,74.493538 668.030762,73.122612 
	C670.447449,71.055534 672.602417,68.504135 675.337463,67.026039 
	C680.431458,64.273140 688.132690,65.686981 689.949585,69.703682 
	C691.019165,72.068245 690.787537,75.056381 690.970886,77.775551 
	C691.115479,79.919266 691.000000,82.080513 691.000000,83.460648 
	C692.627747,84.952980 693.812378,86.039047 694.997009,87.125114 
	C692.941345,88.639687 691.002441,91.211815 688.806335,91.454247 
	C683.850220,92.001389 678.665405,91.935387 673.781494,91.015442 
	C671.596863,90.603935 669.039612,87.861588 668.203491,85.602531 
	C666.923706,82.145287 668.232056,78.923393 672.924255,77.982620 
z"/>
<path fill="#FFFFFF" opacity="1.000000" stroke="none" 
	d="
M423.554565,80.960022 
	C426.411804,79.177567 428.961945,77.657097 430.375732,76.814140 
	C428.437073,75.853951 425.735229,74.515793 423.033386,73.177635 
	C425.428131,71.096901 427.515533,68.089851 430.294708,67.167786 
	C433.840393,65.991394 438.021362,65.947136 441.782867,66.467613 
	C444.477142,66.840424 446.516266,69.077080 446.060852,72.600197 
	C445.744476,75.047684 445.883667,77.576706 446.045258,80.054558 
	C446.136932,81.460091 446.254059,83.281296 447.125214,84.122322 
	C448.482574,85.432655 451.816101,86.262741 449.593384,88.361557 
	C447.468262,90.368240 443.710968,92.037468 440.998993,91.636574 
	C438.337585,91.243164 436.264130,91.185745 433.633636,91.853386 
	C427.454926,93.421585 422.704315,88.300919 423.554565,80.960022 
z"/>
<path fill="#FFFFFF" opacity="1.000000" stroke="none" 
	d="
M526.269775,134.762726 
	C527.900574,136.924866 529.265442,138.825928 530.514893,140.566345 
	C529.738647,141.436829 529.504944,141.876404 529.346130,141.850830 
	C525.994019,141.310928 522.665283,140.381119 519.300781,140.231918 
	C515.967651,140.084152 512.510437,141.333313 509.267670,140.864014 
	C503.627106,140.047699 501.979553,134.189636 505.665436,129.766525 
	C506.423492,128.856888 507.062439,127.455338 507.001312,126.321251 
	C506.672668,120.227135 508.194489,117.369011 512.296204,117.000641 
	C519.375244,116.364876 521.574463,118.042168 522.442627,125.003922 
	C525.187622,125.003922 527.974182,125.003922 532.124817,125.003922 
	C530.461731,126.872345 529.292236,127.745956 528.735596,128.912109 
	C527.842468,130.783066 523.386841,130.963013 526.269775,134.762726 
z"/>
<path fill="#FFFFFF" opacity="1.000000" stroke="none" 
	d="
M553.190796,91.000000 
	C551.485291,90.593460 550.254211,90.186920 549.023132,89.780388 
	C549.743652,88.835449 550.605225,87.963402 551.142273,86.923691 
	C551.616272,86.006218 551.954224,84.903778 551.963745,83.879402 
	C552.031677,76.574097 552.073242,69.266441 551.932251,61.963219 
	C551.906982,60.652969 551.045044,59.338562 550.479309,58.066132 
	C550.095032,57.201767 549.073120,56.305183 549.220703,55.611053 
	C549.361145,54.950684 550.599670,54.193443 551.442200,54.069866 
	C555.105225,53.532589 558.799805,53.211174 563.000000,52.755192 
	C563.000000,62.837822 562.986572,72.422897 563.009949,82.007896 
	C563.015381,84.239899 562.355896,86.817902 565.991272,87.190948 
	C566.494080,87.242554 566.781372,89.393768 567.308594,91.000000 
	C562.262390,91.000000 557.963745,91.000000 553.190796,91.000000 
z"/>
<path fill="#FFFFFF" opacity="1.000000" stroke="none" 
	d="
M388.000000,74.289871 
	C387.998871,73.498421 387.938019,73.153450 388.006348,72.836319 
	C388.480896,70.633614 382.805786,71.317429 385.946899,67.254776 
	C389.606750,62.521194 392.333984,57.424667 399.931183,59.384357 
	C399.931183,61.369190 399.931183,63.456463 399.931183,65.895645 
	C401.696228,65.895645 403.108673,65.895645 404.468079,65.895645 
	C406.047821,70.423782 403.573212,71.336273 400.110138,71.100494 
	C400.110138,75.823288 400.110138,80.112869 400.110138,85.016624 
	C401.408569,85.016624 402.761597,84.702255 403.834808,85.115150 
	C404.708221,85.451180 405.477509,86.569878 405.839325,87.515144 
	C406.030121,88.013611 405.422485,89.295151 404.882324,89.520401 
	C400.583130,91.313263 395.750244,93.956093 391.712830,90.582489 
	C389.449310,88.691124 388.916107,84.486610 388.094208,81.201492 
	C387.585938,79.170044 388.000000,76.907837 388.000000,74.289871 
z"/>
<path fill="#FFFFFF" opacity="1.000000" stroke="none" 
	d="
M280.597168,124.000519 
	C282.685852,125.758606 285.185760,127.264145 285.798920,129.329742 
	C286.861938,132.911026 286.757080,136.838974 287.159027,140.788727 
	C280.606812,140.788727 273.376373,140.788727 265.928986,140.788727 
	C270.367889,132.646011 270.722961,124.731506 265.861511,116.429802 
	C269.163605,115.871384 272.351990,115.332199 275.840271,114.742287 
	C275.840271,117.959579 275.840271,120.582054 275.840271,123.735916 
	C277.392090,123.830826 278.775604,123.915443 280.597168,124.000519 
z"/>
<path fill="#FFFFFF" opacity="1.000000" stroke="none" 
	d="
M252.278290,124.999252 
	C251.235794,124.639824 250.582291,124.330948 250.008560,123.912666 
	C248.401627,122.741158 245.812515,120.227951 245.410614,120.542625 
	C243.300507,122.194817 240.689514,124.362900 240.254684,126.720993 
	C239.643265,130.036621 238.840515,133.959610 243.000504,136.720230 
	C246.033401,138.732910 247.595169,137.972458 249.728516,135.810562 
	C251.170074,134.349701 253.098755,133.369522 255.719879,131.538376 
	C256.368774,138.464630 254.193726,140.758118 248.902664,141.747940 
	C241.163712,143.195709 234.311768,139.986053 231.950363,132.724182 
	C229.750168,125.958122 232.592377,119.764320 239.491287,118.024765 
	C243.693710,116.965126 248.296890,116.842117 252.616058,117.293549 
	C253.922546,117.430107 254.997803,120.849762 255.837158,122.905182 
	C255.932251,123.138046 253.802032,124.279655 252.278290,124.999252 
z"/>
<path fill="#FFFFFF" opacity="1.000000" stroke="none" 
	d="
M586.311035,137.991653 
	C587.269836,138.768036 587.803040,139.528717 588.708862,140.820923 
	C583.371277,140.820923 578.918152,140.820923 574.174988,140.820923 
	C573.607178,138.239914 578.882568,134.741791 573.417297,133.215195 
	C572.507996,132.961197 570.840332,135.421967 569.527466,136.624237 
	C571.184814,138.019882 572.261292,138.926361 574.444946,140.765167 
	C568.772766,140.765167 564.675476,140.765167 559.308350,140.765167 
	C566.905579,134.156738 567.510925,124.829872 571.633484,117.140686 
	C574.943054,116.647621 577.019531,116.886810 578.259827,121.148438 
	C579.963379,127.001610 583.267334,132.388977 586.311035,137.991653 
z"/>
<path fill="#FFFFFF" opacity="1.000000" stroke="none" 
	d="
M516.750122,86.495041 
	C516.978577,82.431526 517.101196,78.775940 516.949036,75.131844 
	C516.880981,73.501778 518.253113,70.865631 514.729492,70.811203 
	C514.488647,70.807480 513.879639,69.275597 514.124817,68.830963 
	C514.544556,68.069771 515.446960,67.200439 516.247559,67.086777 
	C520.265381,66.516357 524.315918,66.176315 528.510193,65.739143 
	C530.459106,74.154106 526.043335,83.068962 532.828735,90.808533 
	C525.962341,90.808533 520.207825,90.808533 512.574158,90.808533 
	C514.515381,88.895493 515.523926,87.901581 516.750122,86.495041 
z"/>
<path fill="#FFFFFF" opacity="1.000000" stroke="none" 
	d="
M597.976074,67.294083 
	C597.997986,71.932693 597.795288,76.110825 598.074707,80.256447 
	C598.248779,82.838829 597.264404,86.227859 601.393738,87.217316 
	C601.869141,87.331223 601.861328,89.461823 602.112305,90.849548 
	C595.973572,90.849548 590.340515,90.849548 583.717285,90.849548 
	C588.140930,82.990532 589.055176,75.168350 582.917114,66.819870 
	C588.792358,66.819870 593.373779,66.819870 597.976074,67.294083 
z"/>
<path fill="#FFFFFF" opacity="1.000000" stroke="none" 
	d="
M728.794678,131.980652 
	C729.134338,131.652985 729.148071,131.103867 729.041260,131.079361 
	C728.565857,130.970169 727.952637,131.185074 727.579285,130.963089 
	C726.671692,130.423538 725.514648,129.852737 725.164185,129.003235 
	C724.967102,128.525574 726.011414,127.031425 726.773987,126.751610 
	C729.722534,125.669685 732.864868,124.030563 735.771729,124.308311 
	C737.660522,124.488800 739.793457,127.365425 740.861633,129.509979 
	C742.102661,132.001617 742.592041,134.992950 742.790894,137.810913 
	C742.861084,138.806595 741.193726,140.752014 740.183350,140.849442 
	C736.396301,141.214584 732.519226,141.282822 728.748596,140.841156 
	C727.397461,140.682877 725.581116,138.972855 725.157532,137.605392 
	C724.353577,135.010345 725.434937,132.773483 728.794678,131.980652 
z"/>
<path fill="#FFFFFF" opacity="1.000000" stroke="none" 
	d="
M469.581299,140.999329 
	C466.458679,140.999939 463.765381,140.753189 461.137207,141.061600 
	C457.746399,141.459518 455.301300,140.113419 455.230957,136.947784 
	C455.187225,134.978897 457.168060,132.965042 458.190155,131.064499 
	C457.905884,130.886337 456.466339,129.984085 455.026855,129.081848 
	C456.231903,127.759048 457.192169,125.942207 458.685974,125.202095 
	C464.089478,122.524887 471.437378,123.014641 471.097717,132.073441 
	C471.030792,133.857925 472.706757,135.701538 472.662537,137.495285 
	C472.633209,138.683945 470.970825,139.832321 469.581299,140.999329 
z"/>
<path fill="#FFFFFF" opacity="1.000000" stroke="none" 
	d="
M652.632568,124.130753 
	C654.529846,124.011574 656.348389,123.464806 657.439026,124.123474 
	C659.210022,125.192947 661.117371,126.803970 661.858093,128.635040 
	C663.014404,131.493652 660.170410,135.688736 664.794373,137.511551 
	C664.003784,138.621445 663.294495,140.609161 662.408752,140.691116 
	C658.304077,141.070908 654.109741,141.253479 650.040039,140.753418 
	C648.868225,140.609406 647.045959,137.821823 647.229187,136.479279 
	C647.492493,134.549973 649.319397,132.834076 650.374756,131.189377 
	C649.843506,130.787033 648.426392,129.713715 647.009277,128.640411 
	C648.748596,127.175072 650.487854,125.709732 652.632568,124.130753 
z"/>
<path fill="#FFFFFF" opacity="1.000000" stroke="none" 
	d="
M371.643890,139.632568 
	C366.638245,140.297897 361.927917,140.928284 357.242584,140.778351 
	C356.119263,140.742386 354.032593,137.938797 354.234863,136.712509 
	C354.576538,134.640793 356.391266,132.812042 357.384064,131.208298 
	C356.889801,130.864944 355.454102,129.867615 354.018402,128.870285 
	C355.276184,127.591370 356.312775,125.875717 357.829285,125.107719 
	C365.118622,121.416252 368.765381,123.887398 369.134979,131.969269 
	C369.248657,134.454361 370.965607,136.866150 371.643890,139.632568 
z"/>
<path fill="#FFFFFF" opacity="1.000000" stroke="none" 
	d="
M298.010681,135.344574 
	C299.357697,133.681290 300.695374,132.423508 301.713013,131.466675 
	C300.836060,130.792511 299.422150,129.705490 298.008209,128.618484 
	C299.353241,127.404678 300.511261,125.809654 302.075317,125.042343 
	C309.255310,121.519936 312.902008,123.894066 313.063110,131.757385 
	C313.104980,133.800568 311.483704,136.958115 315.572205,137.409607 
	C315.608521,137.413605 315.477997,139.780685 315.407135,139.781708 
	C310.032440,139.859390 304.649506,139.916626 299.289978,139.595505 
	C298.785461,139.565262 298.427460,137.090103 298.010681,135.344574 
z"/>
<path fill="#FFFFFF" opacity="1.000000" stroke="none" 
	d="
M679.299438,138.712311 
	C677.138000,133.698196 675.232544,129.015320 673.269531,124.191002 
	C679.962952,124.191002 686.741577,124.191002 693.829285,124.191002 
	C693.829285,124.962318 694.099731,125.861626 693.785889,126.448357 
	C691.589600,130.553818 689.142273,134.528534 687.037109,138.677979 
	C685.455505,141.795502 682.219543,142.061050 679.299438,138.712311 
z"/>
<path fill="#FFFFFF" opacity="1.000000" stroke="none" 
	d="
M341.252533,130.355362 
	C339.771027,133.585220 338.851624,136.713608 337.100372,139.272751 
	C336.194305,140.596741 333.813080,140.911194 332.362335,141.563141 
	C329.376862,135.395004 326.739929,129.946976 323.974976,124.234436 
	C331.063446,124.234436 337.931763,124.234436 345.776459,124.234436 
	C344.077515,126.515991 342.773651,128.266968 341.252533,130.355362 
z"/>
<path fill="#FFFFFF" opacity="1.000000" stroke="none" 
	d="
M434.381287,140.983459 
	C433.796143,140.035355 433.476746,139.081055 433.574585,138.171631 
	C433.917572,134.982483 435.927948,130.534790 434.541077,128.876099 
	C430.873322,124.489510 434.095734,125.136765 435.342041,124.955330 
	C435.869232,122.542465 435.660370,119.905548 436.850098,118.859711 
	C438.847382,117.104050 441.734833,116.361053 444.702576,115.751846 
	C440.326111,124.335915 442.780762,132.286377 444.941803,140.997849 
	C441.590454,140.997849 438.214447,140.997849 434.381287,140.983459 
z"/>
<path fill="#FFFFFF" opacity="1.000000" stroke="none" 
	d="
M633.227234,123.517662 
	C634.674744,124.368652 635.925842,124.848732 638.762939,125.937424 
	C631.340698,127.794693 633.287964,132.441879 633.001221,135.893906 
	C634.518311,136.973358 635.747986,137.848328 636.977722,138.723282 
	C635.529724,139.481903 634.136230,140.750214 632.624451,140.911972 
	C625.640869,141.659195 625.148621,140.973495 624.915405,133.994659 
	C624.843872,131.853180 623.181824,129.706818 623.317871,127.632866 
	C623.451599,125.593513 624.497314,123.161156 625.971680,121.797180 
	C627.295837,120.572189 629.727661,120.419983 631.718018,120.170090 
	C632.026184,120.131393 632.586914,122.104172 633.227234,123.517662 
z"/>
<path fill="#FFFFFF" opacity="1.000000" stroke="none" 
	d="
M419.747162,129.999359 
	C418.537506,130.877380 417.103821,131.780869 417.137421,132.626038 
	C417.209351,134.435806 417.925995,136.260437 418.609467,137.987625 
	C418.929871,138.797348 419.785370,139.395370 420.993042,140.762543 
	C415.655060,140.762543 411.407104,140.762543 406.686829,140.762543 
	C409.647675,135.647980 410.433716,130.736481 406.094818,125.149986 
	C411.073242,124.716171 415.179291,124.162430 419.290558,124.120300 
	C420.513855,124.107773 421.751892,125.531235 422.983154,126.296738 
	C422.051483,127.530624 421.119843,128.764511 419.747162,129.999359 
z"/>
<path fill="#FFFFFF" opacity="1.000000" stroke="none" 
	d="
M396.178711,129.320297 
	C394.420563,129.821106 392.960876,130.001617 390.308228,130.329651 
	C391.310028,133.825500 392.277344,137.200897 393.272919,140.674957 
	C389.725983,140.674957 385.524780,140.674957 380.896027,140.674957 
	C381.971436,138.286301 383.667480,136.078796 383.817047,133.771042 
	C383.984039,131.194504 382.746948,128.526962 381.863647,124.818710 
	C386.015137,124.543327 390.089722,124.033028 394.158478,124.075768 
	C397.692657,124.112900 397.354980,126.568764 396.178711,129.320297 
z"/>
<path fill="#FFFFFF" opacity="1.000000" stroke="none" 
	d="
M606.065430,124.000000 
	C607.512512,124.000175 608.699158,123.655663 609.463379,124.077126 
	C610.779724,124.803101 611.833069,126.005936 612.996826,127.008652 
	C611.824280,128.005768 610.713257,129.093903 609.446045,129.951157 
	C608.995483,130.255966 608.165405,129.999954 606.223877,129.999954 
	C607.315063,133.823563 608.282898,137.214859 609.270142,140.674149 
	C605.728088,140.674149 601.529968,140.674149 596.715027,140.674149 
	C600.756836,135.942032 601.810730,131.109009 597.195312,125.534409 
	C600.459167,124.939598 603.036987,124.469803 606.065430,124.000000 
z"/>
<path fill="#FFFFFF" opacity="1.000000" stroke="none" 
	d="
M704.106689,137.974594 
	C704.393127,133.826843 704.232056,129.754150 704.048767,125.118736 
	C706.128418,124.762131 709.263306,124.224571 712.421692,123.682983 
	C713.021118,129.549942 713.574951,134.970627 714.190491,140.994995 
	C711.544617,140.994995 708.137939,141.098999 704.754700,140.864777 
	C704.326599,140.835159 704.021362,139.031448 704.106689,137.974594 
z"/>
<path fill="#FFFFFF" opacity="1.000000" stroke="none" 
	d="
M527.602661,62.858414 
	C524.593689,63.420383 521.885986,63.915459 519.194153,63.840317 
	C518.439514,63.819248 517.042480,62.038715 517.140625,61.206905 
	C517.370483,59.258705 517.974792,56.059788 519.061829,55.773170 
	C521.434875,55.147476 524.401978,55.503674 526.759583,56.411373 
	C529.719360,57.550930 529.172302,60.192711 527.602661,62.858414 
z"/>
<path fill="#FFFFFF" opacity="1.000000" stroke="none" 
	d="
M589.510376,63.991787 
	C585.729919,62.313896 584.782410,58.956726 587.247437,56.978760 
	C589.267029,55.358242 593.157715,55.609013 596.106506,55.964237 
	C596.759949,56.042950 597.961365,61.308853 597.128113,61.982861 
	C595.351074,63.420349 592.405945,63.413792 589.510376,63.991787 
z"/>
<path fill="#FFFFFF" opacity="1.000000" stroke="none" 
	d="
M705.002075,120.052048 
	C707.467346,119.378014 709.930054,119.127029 712.398254,119.048424 
	C712.490173,119.045494 712.936890,121.402740 712.707153,121.504303 
	C711.181396,122.178955 709.494995,122.938683 707.904053,122.854454 
	C706.897583,122.801170 705.965759,121.336098 705.002075,120.052048 
z"/>
<path fill="#000000" opacity="1.000000" stroke="none" 
	d="
M29.976063,106.998245 
	C25.140455,93.846817 25.084156,81.019180 28.474628,67.878998 
	C32.077423,53.915909 39.231724,42.154755 49.893356,32.763134 
	C62.211872,21.911999 76.483345,15.408123 93.334587,14.921544 
	C115.426376,14.283647 133.233963,22.959372 147.541702,39.157196 
	C156.669525,49.490814 162.177536,61.557590 164.159683,75.500122 
	C166.735016,93.614906 162.976654,110.153328 152.867203,124.935951 
	C141.606415,141.402115 125.873802,151.732773 105.890274,155.004211 
	C85.756470,158.300278 68.239891,152.541870 52.455235,140.047729 
	C41.559063,131.422989 34.407833,120.406807 29.976063,106.998245 
M83.806221,109.237183 
	C85.875130,109.491455 87.967850,110.066261 90.006622,109.914841 
	C92.298683,109.744591 94.577988,108.342560 96.800232,108.481033 
	C105.153244,109.001549 113.480736,109.931374 121.817795,110.707848 
	C122.010605,110.081276 122.203415,109.454704 122.396225,108.828140 
	C121.738152,108.220100 121.115448,107.135513 120.416100,107.083595 
	C116.685593,106.806717 116.725220,105.340149 117.858665,102.158989 
	C121.108612,93.037598 120.912178,92.967911 130.333481,92.999557 
	C131.325684,93.002892 132.317932,93.000008 133.635925,93.000008 
	C135.030792,97.300888 136.414749,101.568115 137.678421,105.464493 
	C136.130508,106.786156 134.923233,107.816986 133.715942,108.847816 
	C133.985580,109.159370 134.255219,109.470917 134.524872,109.782471 
	C141.639221,109.782471 148.753571,109.782471 156.874557,109.782471 
	C155.813828,108.463707 155.289871,107.672279 154.629807,107.018234 
	C152.743423,105.149055 149.940887,103.687172 149.024261,101.442200 
	C143.840714,88.746666 139.104065,75.868668 134.226746,63.048309 
	C129.459747,62.993916 126.310883,65.981186 124.004654,71.689835 
	C120.236786,81.016479 116.262672,90.268425 112.034370,99.393784 
	C111.097839,101.414963 108.898788,103.008057 106.965820,104.341133 
	C106.066788,104.961151 104.413521,104.487518 103.102158,104.509651 
	C103.178207,103.076767 102.698402,101.158890 103.441116,100.307678 
	C105.220062,98.268829 107.628822,96.792496 109.664764,94.957520 
	C110.339981,94.348946 110.653252,93.338806 111.534599,91.817177 
	C106.291298,91.817177 102.182899,91.817177 97.600166,91.817177 
	C99.094749,87.749619 97.415405,85.138969 93.986115,84.641510 
	C91.334396,84.256844 87.168060,84.425751 86.002281,86.034714 
	C84.312080,88.367477 84.720665,92.220924 84.234062,95.425751 
	C84.594254,95.403175 84.954453,95.380592 85.314644,95.358017 
	C84.093391,96.843117 82.872139,98.328224 81.068298,100.521774 
	C81.068298,97.838387 81.068298,96.119164 81.068298,94.201035 
	C78.974190,94.201035 77.195503,94.201035 75.386040,94.201035 
	C75.100929,95.154053 74.868835,96.074966 74.552261,96.965874 
	C70.870621,107.326897 59.629402,109.864365 51.791759,102.374397 
	C42.876892,93.854988 44.350128,76.605370 53.599693,69.234505 
	C56.164024,67.191025 60.885918,65.737076 63.773354,66.658699 
	C69.752640,68.567177 74.714684,72.641869 75.292259,79.736389 
	C77.280296,79.736389 79.023514,79.736389 80.771347,79.736389 
	C80.771347,74.365654 80.771347,69.262070 80.771347,64.502068 
	C76.551025,64.310303 72.483017,64.655266 68.652824,63.857868 
	C53.654842,60.735470 37.454765,64.650917 34.477863,83.011017 
	C32.655621,94.249718 37.018250,105.667679 48.611664,108.344330 
	C58.674545,110.667603 69.692551,108.999710 80.275139,108.669525 
	C81.194115,108.640862 82.111107,107.121979 83.806221,109.237183 
z"/>
<path fill="#000000" opacity="1.000000" stroke="none" 
	d="
M728.999634,74.486465 
	C729.000000,78.228424 729.000000,81.527443 729.000000,84.826454 
	C728.560669,85.083046 728.121399,85.339630 727.682068,85.596222 
	C726.460876,84.051476 724.302917,82.558899 724.213379,80.951126 
	C724.026794,77.600006 722.409912,73.524094 727.384827,70.686729 
	C727.931702,71.823898 728.465454,72.933708 728.999634,74.486465 
z"/>
<path fill="#000000" opacity="1.000000" stroke="none" 
	d="
M631.001099,77.926224 
	C631.820068,75.044281 632.639954,72.572807 633.459839,70.101334 
	C634.035034,70.199081 634.610229,70.296837 635.185425,70.394592 
	C635.185425,75.167496 635.185425,79.940399 635.185425,84.713295 
	C634.915344,84.937569 634.645264,85.161835 634.375122,85.386101 
	C633.250732,83.036301 632.126343,80.686493 631.001099,77.926224 
z"/>
<path fill="#000000" opacity="1.000000" stroke="none" 
	d="
M484.000000,79.999557 
	C483.763672,82.828781 485.085175,86.189392 480.290436,85.927437 
	C480.290436,81.098892 480.290436,76.299187 480.290436,71.429977 
	C484.191345,72.994797 484.261719,76.198891 484.000000,79.999557 
z"/>
<path fill="#000000" opacity="1.000000" stroke="none" 
	d="
M354.000000,80.062881 
	C353.529175,82.681602 353.058319,84.833115 352.587463,86.984627 
	C352.058319,84.891457 351.267303,82.823235 351.064911,80.698936 
	C350.799957,77.917496 351.000000,75.091766 351.000000,72.285080 
	C351.768219,72.245781 352.536407,72.206474 353.304626,72.167168 
	C353.536407,74.643341 353.768219,77.119507 354.000000,80.062881 
z"/>
<path fill="#000000" opacity="1.000000" stroke="none" 
	d="
M302.000000,78.023361 
	C302.518372,75.034142 303.036713,72.482964 303.555084,69.931786 
	C307.623505,75.618607 307.977448,81.205597 305.673615,86.898247 
	C305.169342,87.007072 304.665070,87.115891 304.160797,87.224709 
	C303.440521,84.303604 302.720245,81.382500 302.000000,78.023361 
z"/>
<path fill="#FFFFFF" opacity="1.000000" stroke="none" 
	d="
M83.487579,108.983437 
	C82.111107,107.121979 81.194115,108.640862 80.275139,108.669525 
	C69.692551,108.999710 58.674545,110.667603 48.611664,108.344330 
	C37.018250,105.667679 32.655621,94.249718 34.477863,83.011017 
	C37.454765,64.650917 53.654842,60.735470 68.652824,63.857868 
	C72.483017,64.655266 76.551025,64.310303 80.771347,64.502068 
	C80.771347,69.262070 80.771347,74.365654 80.771347,79.736389 
	C79.023514,79.736389 77.280296,79.736389 75.292259,79.736389 
	C74.714684,72.641869 69.752640,68.567177 63.773354,66.658699 
	C60.885918,65.737076 56.164024,67.191025 53.599693,69.234505 
	C44.350128,76.605370 42.876892,93.854988 51.791759,102.374397 
	C59.629402,109.864365 70.870621,107.326897 74.552261,96.965874 
	C74.868835,96.074966 75.100929,95.154053 75.386040,94.201035 
	C77.195503,94.201035 78.974190,94.201035 81.068298,94.201035 
	C81.068298,96.119164 81.068298,97.838387 81.068298,100.521774 
	C82.872139,98.328224 84.093391,96.843117 85.314644,95.358017 
	C84.954453,95.380592 84.594254,95.403175 84.234062,95.425751 
	C84.720665,92.220924 84.312080,88.367477 86.002281,86.034714 
	C87.168060,84.425751 91.334396,84.256844 93.986115,84.641510 
	C97.415405,85.138969 99.094749,87.749619 97.600166,91.817177 
	C102.182899,91.817177 106.291298,91.817177 111.534599,91.817177 
	C110.653252,93.338806 110.339981,94.348946 109.664764,94.957520 
	C107.628822,96.792496 105.220062,98.268829 103.441116,100.307678 
	C102.698402,101.158890 103.178207,103.076767 103.102158,104.509651 
	C104.413521,104.487518 106.066788,104.961151 106.965820,104.341133 
	C108.898788,103.008057 111.097839,101.414963 112.034370,99.393784 
	C116.262672,90.268425 120.236786,81.016479 124.004654,71.689835 
	C126.310883,65.981186 129.459747,62.993916 134.220978,63.050560 
	C139.104065,75.868668 143.840714,88.746666 149.024261,101.442200 
	C149.940887,103.687172 152.743423,105.149055 154.629807,107.018234 
	C155.289871,107.672279 155.813828,108.463707 156.874557,109.782471 
	C148.753571,109.782471 141.639221,109.782471 134.524872,109.782471 
	C134.255219,109.470917 133.985580,109.159370 133.715942,108.847816 
	C134.923233,107.816986 136.130508,106.786156 137.678421,105.464493 
	C136.414749,101.568115 135.030792,97.300888 133.635925,93.000008 
	C132.317932,93.000008 131.325684,93.002892 130.333481,92.999557 
	C120.912178,92.967911 121.108612,93.037598 117.858665,102.158989 
	C116.725220,105.340149 116.685593,106.806717 120.416100,107.083595 
	C121.115448,107.135513 121.738152,108.220100 122.396225,108.828140 
	C122.203415,109.454704 122.010605,110.081276 121.817795,110.707848 
	C113.480736,109.931374 105.153244,109.001549 96.800232,108.481033 
	C94.577988,108.342560 92.298683,109.744591 90.006622,109.914841 
	C87.967850,110.066261 85.875130,109.491455 83.487579,108.983437 
M125.762650,89.999901 
	C127.810013,89.999901 129.857376,89.999901 132.231232,89.999901 
	C130.624847,85.580765 129.283234,81.890038 127.685501,77.494705 
	C126.077812,81.480858 124.683067,84.740021 123.516167,88.078812 
	C123.366707,88.506447 124.403008,89.348488 125.762650,89.999901 
z"/>
<path fill="#000000" opacity="1.000000" stroke="none" 
	d="
M125.326324,89.999229 
	C124.403008,89.348488 123.366707,88.506447 123.516167,88.078812 
	C124.683067,84.740021 126.077812,81.480858 127.685501,77.494705 
	C129.283234,81.890038 130.624847,85.580765 132.231232,89.999901 
	C129.857376,89.999901 127.810013,89.999901 125.326324,89.999229 
z"/>
</svg>